<svg width="128" height="32" viewBox="0 0 128 32" fill="none" xmlns="http://www.w3.org/2000/svg">
<path d="M33.0568 9.25388H35.8961V20.0721H41.1585V22.5138H33.0568V9.25388Z" fill="#2E343F"/>
<path d="M42.4367 20.2615C42.002 19.4605 41.7831 18.5602 41.8016 17.649C41.7831 16.7379 42.002 15.8376 42.4367 15.0366C42.85 14.2881 43.4759 13.679 44.2353 13.286C45.0768 12.8803 45.9989 12.6696 46.9331 12.6696C47.8673 12.6696 48.7895 12.8803 49.631 13.286C50.3892 13.6805 51.0147 14.2893 51.4296 15.0366C51.8622 15.8383 52.0801 16.7382 52.062 17.649C52.0823 18.5635 51.8643 19.4675 51.4296 20.2722C51.0119 21.0147 50.3869 21.6193 49.631 22.0121C48.7895 22.4178 47.8673 22.6285 46.9331 22.6285C45.9989 22.6285 45.0768 22.4178 44.2353 22.0121C43.4759 21.6191 42.85 21.01 42.4367 20.2615ZM49.3562 17.649C49.3862 16.9159 49.1502 16.1965 48.6917 15.6236C48.4759 15.371 48.2054 15.1707 47.9007 15.038C47.596 14.9053 47.2652 14.8437 46.9331 14.8578C46.6014 14.8444 46.271 14.9075 45.9674 15.0422C45.6639 15.1768 45.3954 15.3794 45.1826 15.6343C44.7268 16.2081 44.4945 16.9277 44.5288 17.6597C44.4945 18.3917 44.7268 19.1113 45.1826 19.6851C45.3954 19.94 45.6639 20.1426 45.9674 20.2773C46.271 20.4119 46.6014 20.475 46.9331 20.4617C47.2669 20.4731 47.5988 20.4082 47.9036 20.2717C48.2084 20.1353 48.478 19.931 48.6917 19.6744C49.1502 19.1015 49.3862 18.3822 49.3562 17.649Z" fill="#2E343F"/>
<path d="M53.7939 20.2615C53.3592 19.4605 53.1403 18.5602 53.1588 17.649C53.1403 16.7379 53.3592 15.8376 53.7939 15.0366C54.2072 14.2881 54.8331 13.679 55.5925 13.286C56.4335 12.8804 57.3552 12.6697 58.289 12.6697C59.2228 12.6697 60.1445 12.8804 60.9855 13.286C61.7449 13.679 62.3708 14.2881 62.7841 15.0366C63.2188 15.8376 63.4377 16.7379 63.4192 17.649C63.4399 18.5639 63.221 19.4682 62.7841 20.2722C62.368 21.0158 61.7426 21.6208 60.9855 22.0121C60.1445 22.4177 59.2228 22.6284 58.289 22.6284C57.3552 22.6284 56.4335 22.4177 55.5925 22.0121C54.8331 21.6191 54.2072 21.01 53.7939 20.2615ZM60.7134 17.649C60.7464 16.9172 60.5143 16.198 60.0596 15.6236C59.836 15.379 59.564 15.1836 59.2607 15.0499C58.9575 14.9162 58.6297 14.8472 58.2984 14.8472C57.967 14.8472 57.6392 14.9162 57.336 15.0499C57.0327 15.1836 56.7607 15.379 56.5371 15.6236C56.0872 16.1999 55.8599 16.9189 55.8967 17.649C55.8629 18.3805 56.0941 19.0997 56.5478 19.6745C56.7713 19.9191 57.0434 20.1145 57.3466 20.2482C57.6499 20.3819 57.9776 20.4509 58.309 20.4509C58.6404 20.4509 58.9682 20.3819 59.2714 20.2482C59.5747 20.1145 59.8467 19.9191 60.0703 19.6745C60.5211 19.0986 60.7494 18.3795 60.7134 17.649Z" fill="#2E343F"/>
<path d="M67.5634 9.25388V16.9285L71.3874 12.7843H74.3789L70.9098 16.5896L74.5763 22.5138H71.4835L69.0231 18.5777L67.5634 20.1468V22.5138H64.8949V9.25388H67.5634Z" fill="#2E343F"/>
<path d="M77.8613 20.3176C78.2921 20.6035 78.8016 20.7472 79.3183 20.7285C79.7784 20.7522 80.237 20.6605 80.6526 20.4617C80.8057 20.3924 80.935 20.2795 81.0242 20.1371C81.1134 19.9947 81.1587 19.8291 81.1542 19.6611C81.1624 19.5553 81.1462 19.4491 81.1069 19.3506C81.0676 19.252 81.0062 19.1638 80.9274 19.0927C80.7376 18.9535 80.517 18.8619 80.2843 18.8259C80.0175 18.7698 79.5531 18.7031 78.9207 18.6284C78.1985 18.5416 77.4845 18.3962 76.7859 18.1934C76.2647 18.0436 75.7937 17.7559 75.4223 17.3609C75.0656 16.9388 74.8824 16.397 74.9099 15.8451C74.903 15.2437 75.0901 14.656 75.4436 14.1693C75.8161 13.6634 76.3239 13.273 76.9086 13.0432C77.6008 12.7672 78.3411 12.632 79.0861 12.6456C80.4115 12.658 81.4789 12.9418 82.2884 13.4968C82.6771 13.7481 82.9996 14.0893 83.2286 14.4915C83.4576 14.8938 83.5863 15.3452 83.6039 15.8078H81.0689C81.0485 15.6236 80.9859 15.4467 80.8859 15.2907C80.7859 15.1347 80.6513 15.0039 80.4925 14.9085C80.0929 14.6607 79.628 14.5389 79.1582 14.5589C78.7334 14.5392 78.3114 14.6371 77.9387 14.8418C77.7996 14.9138 77.6828 15.0224 77.6009 15.156C77.5191 15.2896 77.4753 15.443 77.4743 15.5996C77.4683 15.6985 77.4876 15.7973 77.5306 15.8865C77.5736 15.9757 77.6388 16.0524 77.7199 16.1093C77.9146 16.2359 78.1337 16.3204 78.363 16.3575C78.6298 16.4055 79.0701 16.4642 79.6972 16.5256C81.0101 16.6786 82.0171 16.9597 82.718 17.3689C83.4172 17.7798 83.7667 18.4816 83.7667 19.4797C83.7759 20.082 83.5792 20.6695 83.209 21.1448C82.8026 21.6494 82.2654 22.0325 81.6559 22.2522C80.9202 22.5246 80.14 22.6567 79.3557 22.6419C78.0054 22.6419 76.9077 22.3421 76.0627 21.7426C75.661 21.4697 75.3303 21.1047 75.0982 20.6782C74.8661 20.2516 74.7393 19.7757 74.7284 19.2902H77.2449C77.263 19.497 77.3279 19.6969 77.4347 19.8749C77.5415 20.0529 77.6874 20.2043 77.8613 20.3176Z" fill="#2E343F"/>
<path d="M89.9177 22.6285C88.9966 22.6493 88.0851 22.4373 87.2678 22.0121C86.5242 21.6143 85.9151 21.0051 85.5173 20.2615C85.0969 19.4559 84.8858 18.5576 84.9035 17.6491C84.8833 16.7377 85.0945 15.8362 85.5173 15.0286C85.9192 14.2864 86.5321 13.68 87.2785 13.286C88.1021 12.8598 89.0199 12.6478 89.947 12.6696C91.2475 12.6696 92.3069 13.0014 93.1252 13.665C93.9623 14.3568 94.5043 15.3415 94.6409 16.4189H91.8683C91.7763 15.9718 91.5366 15.5686 91.1879 15.2741C90.8299 14.9831 90.3787 14.8314 89.9177 14.8471C89.5986 14.8363 89.2814 14.9011 88.9921 15.036C88.7027 15.1709 88.4493 15.3723 88.2525 15.6236C87.8154 16.2057 87.5946 16.9219 87.6281 17.6491C87.5946 18.3762 87.8154 19.0924 88.2525 19.6745C88.4482 19.9278 88.7011 20.1312 88.9906 20.268C89.28 20.4048 89.5977 20.4712 89.9177 20.4617C90.3883 20.4782 90.849 20.3237 91.2146 20.0267C91.5709 19.7197 91.8088 19.2977 91.887 18.8339H94.6329C94.5082 19.923 93.9693 20.9224 93.1279 21.6252C92.3006 22.2941 91.2306 22.6285 89.9177 22.6285Z" fill="#2E343F"/>
<path d="M96.1913 20.2615C95.7567 19.4605 95.5378 18.5602 95.5562 17.649C95.5378 16.7379 95.7567 15.8376 96.1913 15.0366C96.6047 14.2881 97.2306 13.679 97.9899 13.286C98.831 12.8804 99.7527 12.6697 100.686 12.6697C101.62 12.6697 102.542 12.8804 103.383 13.286C104.142 13.679 104.768 14.2881 105.182 15.0366C105.616 15.8376 105.835 16.7379 105.817 17.649C105.837 18.5639 105.618 19.4682 105.182 20.2722C104.769 21.0139 104.148 21.6187 103.396 22.0121C102.555 22.4177 101.634 22.6284 100.7 22.6284C99.766 22.6284 98.8443 22.4177 98.0033 22.0121C97.239 21.6213 96.6082 21.0119 96.1913 20.2615ZM103.111 17.649C103.144 16.9172 102.912 16.198 102.457 15.6236C102.233 15.379 101.961 15.1836 101.658 15.0499C101.355 14.9162 101.027 14.8472 100.696 14.8472C100.364 14.8472 100.037 14.9162 99.7334 15.0499C99.4302 15.1836 99.1581 15.379 98.9346 15.6236C98.4808 16.1984 98.2497 16.9176 98.2835 17.649C98.2497 18.3805 98.4808 19.0997 98.9346 19.6745C99.1581 19.9191 99.4302 20.1145 99.7334 20.2482C100.037 20.3819 100.364 20.4509 100.696 20.4509C101.027 20.4509 101.355 20.3819 101.658 20.2482C101.961 20.1145 102.233 19.9191 102.457 19.6745C102.913 19.1004 103.146 18.3812 103.113 17.649H103.111Z" fill="#2E343F"/>
<path d="M116.456 22.5138H114.092L113.844 21.3396C113.502 21.7637 113.065 22.1014 112.569 22.3253C112.072 22.5492 111.53 22.6531 110.986 22.6285C110.475 22.648 109.965 22.565 109.486 22.3845C109.008 22.2039 108.57 21.9294 108.2 21.5771C107.488 20.878 107.132 19.7074 107.132 18.0653V12.7843H109.801V17.7424C109.801 18.6284 109.956 19.2928 110.265 19.7412C110.426 19.9663 110.642 20.1463 110.893 20.264C111.143 20.3818 111.419 20.4333 111.695 20.4136C111.996 20.4271 112.294 20.3659 112.565 20.2355C112.835 20.1051 113.069 19.9096 113.246 19.6664C113.614 19.1674 113.796 18.4683 113.796 17.5743V12.7843H116.464L116.456 22.5138Z" fill="#2E343F"/>
<path d="M117.403 15.0366V12.7843H119.005V10.0544H121.673V12.7843H123.888V15.0366H121.673V19.3062C121.649 19.5711 121.726 19.8352 121.889 20.0454C121.99 20.1301 122.106 20.1938 122.232 20.2328C122.357 20.2717 122.49 20.2851 122.62 20.2722H124V22.5244H121.809C119.952 22.5244 119.024 21.5967 119.026 19.7412V15.0366H117.403Z" fill="#2E343F"/>
<path d="M17.8564 7.20078L4 15.2008V10.4008L13.7026 4.80078L17.8564 7.20078Z" fill="#2E343F"/>
<path d="M23.4051 10.4008V13.17L6.4 22.9854L4 21.6008V18.9957L21.1385 9.09822L23.4051 10.4008Z" fill="#2E343F"/>
<path d="M9.68205 24.8828L23.4051 16.9649V21.6008L13.7026 27.2008L9.68205 24.8828Z" fill="#2E343F"/>
</svg>
